<?xml version="1.0" encoding="utf-8"?>
<!-- Generator: Adobe Illustrator 28.4.1, SVG Export Plug-In . SVG Version: 6.00 Build 0)  -->
<svg version="1.1" id="Calque_1" xmlns="http://www.w3.org/2000/svg" xmlns:xlink="http://www.w3.org/1999/xlink" x="0px" y="0px"
	 viewBox="0 0 1216.3 433.5" style="enable-background:new 0 0 1216.3 433.5;" xml:space="preserve">
<style type="text/css">
	.st0{fill:#352111;}
	.st1{fill:none;stroke:#352111;stroke-width:3;stroke-miterlimit:10;}
	.st2{fill:none;}
</style>
<image style="display:none;overflow:visible;" width="835" height="724" xlink:href="image_viber_2024-11-14_21-38-53-367.jpg"  transform="matrix(1 0 0 1 -139.0308 -98.1613)">
</image>
<polygon class="st0" points="464.3,340.7 345.9,61 327.1,94.7 431.2,340.7 "/>
<path class="st0" d="M269.9,180.2c-9.5,13.9-17.6,36.6-17.6,36.6L200.7,94.7L219.5,61L269.9,180.2z"/>
<path class="st0" d="M285.8,295.8l-17.1-40.4c0,0,0,0,0,0c0.1-0.5,4.5-19.3,15.9-40.5l21.2,50.1C305.8,265,292.4,277.9,285.8,295.8z
	"/>
<path class="st0" d="M337.9,340.7h-33.1l-6.5-15.4v0c1-12.4,18.8-33.7,18.8-33.7L337.9,340.7z"/>
<path class="st1" d="M328.9,94.7c0,0-69.9,138.7-75.3,172.3c0,0-25.9,70.6,10.8,73.7c0,0,20.3-0.1,26.3-25.3c0,0,18-55.4,53.6-70.1
	c0,0,11.3-9.1,43.1-12.1"/>
<path class="st1" d="M203,97.1c-12.8,26.9-26.6,53.3-39.4,80.1c-12.9,27-24.8,54.6-33.8,83.1c-4.4,14.1-9,28.8-10.9,43.5
	c-1.5,11.8-1.8,25.4,7.7,34.2c9,8.3,22.3,5.7,29.9-3.1c4.3-4.9,6-11.8,8.5-17.7c3.1-7.3,6.3-14.5,9.8-21.6
	c6.3-13,13.4-27.1,25.1-36.2c11.3-8.8,24.3-15.9,38.2-19.9c3.5-1,7-1.8,10.5-2.4"/>
<path class="st2" d="M369.8,223.3c0,0-43,3.1-63.9,41.7c0,0-13.4,12.9-20,30.8c-6.2,16.8-0.8,3.2-0.1,1.5
	c-0.8,2.5-9.9,30.7-20.7,28.7c0,0-26.2-7-6.5-42.6c1.3-2.3,4.2-15.7,10.1-28.1c0,0,0,0,0,0c0.1-0.5,4.5-19.3,15.9-40.5l42.5-96.1
	L369.8,223.3z"/>
<g>
	<g>
		<g>
			<path class="st0" d="M481.8,255.3l28.3-75.4h9.2l28.3,75.4H536l-21.3-60.8l-21.3,60.8H481.8z M494.9,238.8v-10.1h40.4v10.1H494.9
				z"/>
			<path class="st0" d="M591.8,229.7l22.5-49.8h10.1v75.4h-10.5v-56.4l0.5,3.3l-18.9,42.7H588l-18.9-41.6l0.5-4.4v56.4h-10.5V180
				h10.1L591.8,229.7z"/>
			<path class="st0" d="M636,255.3l28.3-75.4h9.2l28.3,75.4h-11.6l-21.3-60.8l-21.3,60.8H636z M649,238.8v-10.1h40.4v10.1H649z"/>
			<path class="st0" d="M775,229.7l22.5-49.8h10.1v75.4h-10.5v-56.4l0.5,3.3l-18.9,42.7h-7.5l-18.9-41.6l0.5-4.4v56.4h-10.5V180
				h10.1L775,229.7z"/>
			<path class="st0" d="M826.6,255.3V180h10.8v75.4H826.6z M831.8,190V180h44.1V190H831.8z M831.8,222.9v-10.1h38.3v10.1H831.8z
				 M831.8,255.3v-10.1h44.1v10.1H831.8z"/>
			<path class="st0" d="M917,256.1c-8.5,0-15.2-2.4-19.9-7.3c-4.7-4.9-7-11.8-7-20.7V180h10.8v48.5c0,5.5,1.4,9.7,4.2,12.8
				c2.8,3,6.8,4.5,11.9,4.5c5.2,0,9.2-1.5,12-4.5c2.8-3,4.2-7.3,4.2-12.8V180h10.8v48.1c0,8.9-2.4,15.8-7.1,20.7
				S925.6,256.1,917,256.1z"/>
			<path class="st0" d="M962,255.3V180h10.7v75.4H962z M968.3,255.3v-9.8h20.8c5.7,0,9.7-1.1,12.1-3.2c2.4-2.1,3.6-5,3.6-8.4v-0.2
				c0-3.7-1-6.7-3-8.9c-2-2.2-5.4-3.3-10-3.3h-23.4v-9.5h23.4c4,0,7-0.9,9-2.8c2-1.8,3-4.6,3-8.1c0-3.8-1.1-6.6-3.4-8.4
				c-2.3-1.9-5.6-2.8-10.1-2.8h-22V180h23.9c7.6,0,13.2,1.8,16.9,5.5c3.7,3.7,5.5,8.7,5.5,14.9c0,3.8-1.1,7.2-3.4,10.3
				c-2.3,3.1-5.8,5.1-10.6,6c4.7,0.7,8.4,2.7,11.1,6.2s3.9,7.3,3.9,11.8v0.2c0,6.2-2,11.1-6.1,14.9c-4,3.8-9.5,5.6-16.5,5.6H968.3z"
				/>
			<path class="st0" d="M1031.8,255.3V180h10.8v75.4H1031.8z M1037.1,255.3v-10.1h43.9v10.1H1037.1z"/>
			<path class="st0" d="M1093.7,255.3V180h10.8v75.4H1093.7z M1098.9,190V180h44.1V190H1098.9z M1098.9,222.9v-10.1h38.3v10.1
				H1098.9z M1098.9,255.3v-10.1h44.1v10.1H1098.9z"/>
		</g>
	</g>
</g>
</svg>
